<?xml version="1.0" encoding="UTF-8" standalone="no"?>
<!-- Created with Inkscape (http://www.inkscape.org/) -->

<svg
   xmlns:dc="http://purl.org/dc/elements/1.1/"
   xmlns:cc="http://creativecommons.org/ns#"
   xmlns:rdf="http://www.w3.org/1999/02/22-rdf-syntax-ns#"
   xmlns:svg="http://www.w3.org/2000/svg"
   xmlns="http://www.w3.org/2000/svg"
   version="1.1"
   width="3697"
   height="4256"
   id="svg3064">
  <metadata
     id="metadata3070">
    <rdf:RDF>
      <cc:Work
         rdf:about="">
        <dc:format>image/svg+xml</dc:format>
        <dc:type
           rdf:resource="http://purl.org/dc/dcmitype/StillImage" />
        <dc:title></dc:title>
      </cc:Work>
    </rdf:RDF>
  </metadata>
  <defs
     id="defs3068" />
  <g
     transform="translate(-3.0198361e-5,0.07355092)"
     id="g3078">
    <path
       d="m 1854,4254.0549 c -2.475,-0.9651 -418.275,-237.8185 -924,-526.341 C 211.95117,3318.058 10.340821,3202.6207 9.773446,3200.8138 8.9116837,3198.0694 1.9193854,1813.8272 1.9953006,1661 2.0241239,1602.975 1.506102,1447.3965 0.84414089,1315.2701 -0.12576514,1121.6782 -0.11387639,1074.5813 0.90537911,1072.6768 1.7673477,1071.0662 292.95628,900.42547 915.16721,536.90675 1417.3156,243.53304 1830.2601,2.718045 1832.8217,1.7623223 c 4.4535,-1.66158869 4.8768,-1.65717887 9.6678,0.1007091 C 1845.2453,2.8741441 2261.275,239.76489 2767,528.2869 c 718.0493,409.6555 919.6592,525.0924 920.2266,526.8993 0.8617,2.7444 7.854,1386.9866 7.7781,1539.8138 -0.029,58.025 0.4892,213.6035 1.1512,345.7299 0.9699,193.5919 0.958,240.6888 -0.061,242.5933 -0.8619,1.6106 -292.0509,172.2513 -914.2618,535.7701 -502.1484,293.3737 -915.0976,534.1924 -917.6649,535.1527 -5.4044,2.0214 -4.4479,2.0394 -10.1679,-0.1911 z M 1199.0047,3005.25 c 0,-2.6125 0.4459,-16.675 0.9852,-31.25 0.5393,-14.575 1.669,-46.75 2.5103,-71.5 7.3991,-217.6552 18.0266,-501.9534 21.0272,-562.5 9.09,-183.417 20.5926,-353.7701 35.9894,-533 4.988,-58.0637 5.4561,-62.1592 7.1695,-62.7294 0.6524,-0.2171 1.9238,0.7309 2.8252,2.1066 2.6283,4.0114 32.7157,66.8944 51.2545,107.1228 9.3781,20.35 22.0907,47.8 28.2502,61 67.2103,144.0331 110.4225,239.5372 142.9788,316 3.981,9.35 16.1334,37.025 27.0051,61.5 21.7472,48.958 43.225,98.2657 60.5466,139 6.1978,14.575 18.2227,41.8 26.7219,60.5 23.6014,51.9278 32.719,72.7972 79.7314,182.4965 l 43.5,101.5035 118.926,0 118.9261,0 9.387,-21.5 c 41.3987,-94.8193 56.5944,-129.9234 88.0901,-203.5 19.7768,-46.2 42.3583,-98.4 50.1813,-116 19.0568,-42.8738 45.7708,-104.0692 61.9882,-142 16.8928,-39.5105 34.0532,-77.7376 83.5119,-186.0337 12.8396,-28.1139 28.383,-62.3325 34.5409,-76.0413 40.2034,-89.5004 130.319,-282.1322 133.5055,-285.3821 0.9722,-0.9916 1.755,-1.1309 2.4499,-0.436 1.076,1.076 5.5742,49.3654 11.4476,122.8931 11.9905,150.1082 20.5135,287.1658 27.0195,434.5 1.3965,31.625 3.8859,87.425 5.5321,124 6.9861,155.2179 12.0209,276.2018 16.4799,396 3.0696,82.4705 6.514,180.1084 6.514,184.6517 l 0,3.3483 156.5,0 156.5,0 0,-2.75 c -0.033,-19.635 -13.6546,-264.1661 -21.9894,-394.75 -2.1765,-34.1 -5.1012,-82.025 -6.4992,-106.5 -6.4904,-113.6246 -15.4729,-247.5188 -24.4865,-365 -1.6246,-21.175 -4.5584,-61.675 -6.5197,-90 -14.943,-215.8149 -36.7287,-458.5939 -61.0644,-680.5 -6.2115,-56.6406 -13.4422,-119.9357 -13.9655,-122.25 l -0.5088,-2.25 -144.231,0.01 -144.2309,0.01 -3.8593,6.7408 c -65.9618,115.2107 -142.676,269.8039 -262.1304,528.2407 -48.8292,105.6409 -81.9258,179.2525 -118.023,262.5 -72.6518,167.5499 -147.821,340.1448 -148.4191,340.7828 -1.9465,2.0764 -4.3779,-2.212 -14.4934,-25.5629 -23.446,-54.1235 -74.5298,-169.3132 -108.0837,-243.7199 -5.3325,-11.825 -15.3179,-34.55 -22.1897,-50.5 -29.6927,-68.9187 -74.151,-168.6801 -104.0584,-233.5 -58.0516,-125.8182 -82.6735,-178.5093 -114.0181,-244 -69.2612,-144.7124 -120.6628,-245.2833 -167.3848,-327.5 l -7.3876,-13 -148.2064,-0.2533 -148.2063,-0.2533 -0.5121,2.2533 c -0.6849,3.0142 -10.3649,84.4213 -15.9639,134.2533 -20.67669,184.027 -42.01474,414.503 -62.0303,670 -3.25915,41.6028 -13.85577,199.2497 -28.5002,424 -5.57085,85.4967 -11.73902,196.8891 -19.02074,343.5 -4.54233,91.4556 -9.00193,184.1623 -9.00755,187.25 L 886,3010 l 156.5,0 156.5,0 0,-4.75 z"
       id="path3092"
       style="fill:#f2d0d0" />
    <path
       d="M 1850.5,4251.6339 C 1829.2258,4240.1121 13.27581,3203.642 11.805819,3202.1823 10.223072,3200.6107 9.8489177,3147.8803 6.1173903,2400.5 -0.14072742,1147.0739 -0.41375521,1073.9827 1.1564599,1072.4295 2.7833914,1070.8201 1827.7511,4.623101 1833.6545,1.833021 l 4.1545,-1.9634968 4.8471,2.4562035 C 1853.1416,7.6391516 3683.6063,1052.2413 3685.1942,1053.8179 c 1.5827,1.5715 1.9569,54.3016 5.6884,801.6821 6.2581,1253.4259 6.5312,1326.5174 4.9609,1328.07 -1.5163,1.4994 -1826.162,1067.5622 -1832.2813,1070.5241 -2.1658,1.0482 -4.1908,1.8984 -4.5,1.8892 -0.3092,-0.01 -4.1622,-1.9664 -8.5622,-4.3494 z M 1200.2037,2992.5 c 0.3871,-9.9 1.6366,-45.45 2.7768,-79 8.6872,-255.6229 18.207,-508.626 22.0495,-586 8.6709,-174.6005 19.9954,-341.3078 35.4936,-522.5 4.995,-58.3973 5.0645,-59 6.8024,-59 0.6795,0 2.9783,3.4875 5.1084,7.75 8.5764,17.1617 31.5708,65.5516 45.2619,95.25 7.9868,17.325 22.0768,47.7 31.3111,67.5 63.9381,137.096 101.2082,219.2798 134.4619,296.5 6.9871,16.225 21.1756,48.625 31.5301,72 26.9684,60.8808 34.8558,78.9549 56.5127,129.5 10.6045,24.75 24.1006,55.575 29.9913,68.5 18.6062,40.8247 45.471,101.8805 66.0006,150 10.9113,25.575 29.1203,68.1 40.4646,94.5 l 20.6258,48 119.8785,0 119.8785,0 24.8863,-57 c 13.6875,-31.35 43.7061,-100.875 66.708,-154.5 23.0019,-53.625 47.3248,-109.875 54.0509,-125 19.1879,-43.148 42.1525,-95.7036 62.2762,-142.5222 18.7336,-43.5846 39.4418,-89.7809 86.5053,-192.9778 14.2973,-31.35 34.5586,-75.9 45.025,-99 25.8595,-57.0736 45.3487,-99.2047 74.9386,-162 42.1516,-89.4534 45.5757,-96.5 46.8926,-96.5 1.7253,0 1.8156,0.7353 5.8352,47.5 15.2479,177.4014 26.5168,352.0191 34.0418,527.5 0.8608,20.075 3.1172,71.15 5.0142,113.5 9.2678,206.907 16.0857,377.3998 21.0144,525.5 0.8877,26.675 1.7903,49.0625 2.0057,49.75 0.3111,0.993 32.6734,1.25 157.423,1.25 148.8888,0 157.0312,-0.091 157.0268,-1.75 -0.01,-3.2167 -4.9811,-102.176 -7.5247,-149.75 -3.3845,-63.2997 -9.7393,-170.9622 -14.0186,-237.5 -1.9278,-29.975 -4.6239,-73.85 -5.9914,-97.5 -7.8954,-136.5459 -15.7438,-254.4183 -25.4353,-382 -2.1725,-28.6 -4.6549,-62.35 -5.5164,-75 -14.6962,-215.7906 -36.5527,-461.5148 -61.0626,-686.5 -5.8735,-53.9152 -14.0782,-126.0637 -15.0395,-132.25 l -0.5827,-3.75 -144.8537,0 -144.8538,0 -10.9368,19.25 c -67.284,118.4274 -148.3925,283.3831 -279.4078,568.25 -42.3742,92.1343 -57.2073,125.7612 -171.1497,388 -42.2003,97.124 -70.9649,162.1157 -71.8273,162.289 -0.7912,0.1589 -2.0135,-0.9661 -2.7162,-2.5 -0.7028,-1.534 -9.7384,-22.139 -20.0792,-45.789 -22.766,-52.0673 -64.1723,-145.3508 -88.9971,-200.5 -10.0269,-22.275 -25.35,-56.9643 -34.0514,-77.0872 -40.7761,-94.299 -73.5221,-167.1764 -128.6936,-286.4128 -111.3122,-240.5674 -181.5863,-382.7401 -246.0314,-497.75 l -15.5495,-27.75 -148.7271,0 -148.727,0 -0.5808,3.25 c -0.7901,4.4218 -10.6326,87.0531 -15.6004,130.9708 -20.06314,177.3691 -43.73672,433.3624 -63.0029,681.2792 -3.01798,38.8353 -8.32105,117.6842 -24.5485,365 -8.23006,125.4308 -13.9925,227.4137 -22.46032,397.5 C 889.66685,2910.6324 885,3007.002 885,3009.461 c 0,1.3881 15.98484,1.5195 157.25,1.2921 l 157.25,-0.2531 0.7037,-18 z"
       id="path3090"
       style="fill:#e6a1a1" />
    <path
       d="M 936.41033,3729.454 C 428.83854,3439.8939 12.964536,3202.3931 12.24587,3201.6744 11.179211,3200.6078 10.125889,3041.6812 6.5112934,2336.4339 4.075943,1861.2702 1.5872102,1382.7899 0.98077624,1273.1442 0.37434224,1163.4986 0.02564675,1073.641 0.20589736,1073.4608 0.57275006,1073.0939 1832.6405,2.797946 1835.7524,1.1325083 c 1.6918,-0.90540589 136.1124,75.4609047 924.8373,525.4135017 507.5718,289.56009 923.4458,527.06089 924.1644,527.77959 1.0667,1.0666 2.12,159.9932 5.7346,865.2405 2.4354,475.1637 4.9241,953.644 5.5305,1063.2897 0.6065,109.6456 0.9552,199.5032 0.7749,199.6834 -0.3669,0.3669 -1832.4346,1070.6629 -1835.5465,1072.3283 -1.6918,0.9054 -136.1124,-75.4609 -924.83727,-525.4135 z M 1200.4195,3009.75 c 0.2516,-1.2375 0.7238,-12.375 1.0492,-24.75 2.329,-88.5646 19.693,-561.2112 23.5674,-641.5 6.9217,-143.4402 17.5321,-308.5005 28.991,-451 4.8004,-59.6969 12.0325,-142.8827 12.5555,-144.4172 0.32,-0.9391 0.8183,-1.0819 1.4769,-0.4233 1.5121,1.5121 26.7834,53.7576 43.9399,90.8405 8.3971,18.15 27.0844,58.425 41.5273,89.5 68.7254,147.8684 99.1346,215.1054 135.4248,299.4344 7.7952,18.1139 21.2957,48.9389 30.0012,68.5 17.9804,40.4015 44.1726,100.5726 58.5759,134.5656 5.36,12.65 16.491,37.85 24.7356,56 22.3801,49.2683 43.0748,96.4407 70.412,160.5 39.5774,92.7418 54.5498,127.418 55.5913,128.75 0.7722,0.9875 26.0164,1.25 120.2325,1.25 94.2218,0 119.4581,-0.2624 120.2219,-1.25 1.3883,-1.795 58.2138,-132.5508 98.2915,-226.1695 18.8173,-43.9557 41.4117,-96.1557 50.2098,-116 22.5035,-50.757 41.3328,-93.8995 60.3896,-138.3673 16.3916,-38.2489 44.1315,-100.0726 84.6743,-188.7132 11.8234,-25.85 27.5722,-60.5 34.9973,-77 47.8798,-106.3974 130.3729,-282.1938 132.2249,-281.777 1.1296,0.2542 2.543,14.7032 8.9284,91.277 12.9739,155.5827 23.0394,315.6024 30.067,478 1.3923,32.175 3.8677,87.975 5.5008,124 8.5057,187.6287 16.5381,389.2682 20.535,515.5 0.8881,28.05 1.8134,52.0125 2.0562,53.25 l 0.4414,2.25 157.4219,0 c 86.5821,0 157.6558,-0.3784 157.9416,-0.8409 1.3229,-2.1404 -11.9256,-245.5455 -21.3995,-393.1591 -2.1709,-33.825 -5.0908,-81.525 -6.4887,-106 -6.7464,-118.1219 -15.8598,-254.3478 -24.5186,-366.5 -1.6136,-20.9 -4.5354,-61.175 -6.4929,-89.5 -11.5562,-167.2189 -25.0002,-326.1781 -43.0486,-509 -12.7088,-128.7339 -31.6477,-300.583 -33.3102,-302.2534 -0.4124,-0.4143 -65.9545,-0.6393 -145.6491,-0.5 l -144.8992,0.2534 -6.9068,12 c -27.9823,48.6176 -58.876,107.1368 -100.0415,189.5 -50.8453,101.7303 -91.769,187.4545 -159.9249,335 -66.0959,143.086 -65.9371,142.7277 -196.7645,443.75 -37.5883,86.4875 -68.8183,157.2499 -69.3998,157.2498 -0.5815,-1e-4 -5.3008,-9.7876 -10.4874,-21.75 -17.8728,-41.2225 -62.8713,-142.8932 -89.0713,-201.2498 -14.4454,-32.175 -34.4768,-77.4 -44.5143,-100.5 -27.5098,-63.3103 -30.7232,-70.6235 -50.7509,-115.5 -46.4742,-104.1361 -117.184,-256.8255 -169.4928,-366 -66.2533,-138.2781 -114.7797,-233.1725 -160.4433,-313.75 l -10.909,-19.25 -148.8851,0 c -81.8869,0 -149.114,0.3702 -149.3937,0.8228 -0.8366,1.3537 -10.9936,85.9409 -19.0535,158.6772 -17.16059,154.8656 -35.39876,349.1801 -52.51413,559.5 -10.2556,126.0246 -10.64004,131.521 -31.99933,457.5 -10.40012,158.7236 -15.39083,248.5099 -26.01345,468 -2.20932,45.65 -4.4594,91.7221 -5.00018,102.3824 -0.54079,10.6604 -0.74197,19.7729 -0.44706,20.25 0.29922,0.4842 70.1085,0.8676 157.95815,0.8676 l 157.4219,0 0.4576,-2.25 z"
       id="path3088"
       style="fill:#d65e5e" />
    <path
       d="M 1857.8214,4254.7192 C 1857.0946,4254.0148 1442.05,4017.0376 935.5,3728.1033 428.95,3439.169 13.870434,3202.1747 13.100965,3201.4494 11.91101,3200.3276 10.980391,3061.8457 6.8738463,2274.8153 4.2184007,1765.8919 1.812051,1329.475 1.5264024,1305 1.2407539,1280.525 0.81749983,1218.425 0.58583784,1167 l -0.42120364,-93.5 4.1676829,-2.0267 C 10.691932,1068.3808 1834.3098,2.8237955 1835.8214,1.3171287 c 1.6257,-1.62040693 1.7218,-1.6214466 3.3572,-0.036341 C 1839.9054,1.985221 2254.95,238.96237 2761.5,527.89668 c 506.55,288.93431 921.6296,525.92862 922.399,526.65392 1.19,1.1218 2.1206,139.6037 6.2272,926.6341 2.6554,508.9234 5.0617,945.3403 5.3474,969.8153 0.2856,24.475 0.7089,86.575 0.9406,138 l 0.4212,93.5 -4.1677,2.0267 c -6.3596,3.0925 -1829.9775,1068.6495 -1831.4891,1070.1562 -1.6257,1.6204 -1.7218,1.6214 -3.3572,0.036 z M 1199.7629,3012.1677 c 1.5644,-0.9931 1.6595,-2.9194 4.7955,-97.1677 4.7222,-141.9136 16.6273,-468.1989 19.4657,-533.5 4.908,-112.9136 14.5385,-273.0743 24.5032,-407.5 6.6072,-89.1328 17.9926,-223.8533 19.0037,-224.8643 0.2579,-0.258 0.6767,-0.2613 0.9306,-0.01 1.1505,1.1505 31.727,65.4692 51.519,108.3717 8.1193,17.6 25.443,54.95 38.4973,83 62.4653,134.2212 87.8655,190.4135 129.0522,285.5 10.6014,24.475 27.4645,62.95 37.4737,85.5 10.0092,22.55 28.3302,64.625 40.7134,93.5 12.3832,28.875 27.2356,62.85 33.0054,75.5 22.2021,48.6772 44.0148,98.5183 84.8256,193.823 23.2746,54.3527 43.0331,99.9152 43.9077,101.25 l 1.5902,2.427 119.4539,0 119.4539,0 1.4543,-2.25 c 2.0651,-3.195 57.1799,-129.8511 97.4808,-224.0147 18.776,-43.8706 39.5829,-92.0206 46.2375,-107 19.8137,-44.6002 42.8532,-97.3385 63.8849,-146.2353 18.048,-41.9599 50.1271,-113.502 86.9885,-194 7.8075,-17.05 23.5506,-51.7 34.9846,-77 28.2602,-62.5313 51.3118,-112.5385 79.286,-172 46.5637,-98.975 51.7295,-109.5514 51.7295,-105.9101 0,0.5445 1.3351,15.822 2.9668,33.95 14.3033,158.9034 27.299,359.0362 35.03,539.4601 1.1195,26.125 3.3737,76.975 5.0093,113 8.1015,178.4333 14.369,334.4792 20.9415,521.3923 1.4808,42.1136 2.1854,54.0765 3.2237,54.7347 0.7308,0.4633 71.8396,0.8493 158.0197,0.8577 123.1263,0.012 156.8542,-0.2488 157.4529,-1.2176 0.9698,-1.5691 0.8755,-4.2297 -2.7046,-76.2671 -5.1309,-103.2429 -12.6701,-234.1227 -19.4412,-337.5 -1.3509,-20.625 -3.606,-57.75 -5.0112,-82.5 -6.7669,-119.1805 -15.819,-254.3757 -25.4767,-380.5 -1.6214,-21.175 -4.5488,-61.675 -6.5053,-90 -15.1674,-219.5858 -38.581,-477.2818 -64.0091,-704.5 -10.2359,-91.4648 -10.6468,-94.8269 -11.7615,-96.25 -0.7753,-0.9897 -31.0587,-1.25 -145.4324,-1.25 l -144.4532,0 -1.9862,2.25 c -3.6769,4.1653 -33.8131,58.562 -60.9393,109.9975 -78.5229,148.8909 -227.8967,466.4162 -327.0098,695.1277 -79.7557,184.0426 -143.5799,329.86 -144.3686,329.8347 -0.5254,-0.017 -8.0912,-16.3835 -16.813,-36.3703 -23.2913,-53.3742 -57.4209,-130.3453 -87.502,-197.3396 -14.5703,-32.45 -31.3287,-70.25 -37.2408,-84 -60.1377,-139.8647 -154.4225,-345.5143 -237.0304,-517 -21.6171,-44.8749 -77.4188,-156.4991 -93.9824,-188 -25.4749,-48.4483 -59.5205,-109.9014 -62.5831,-112.964 -1.3675,-1.3675 -17.8046,-1.536 -149.8421,-1.536 -117.4373,0 -148.5172,0.2602 -149.3203,1.25 -1.7004,2.0958 -18.3928,145.7074 -30.19152,259.75 -16.14187,156.0226 -36.46292,385.1131 -51.00433,575 -1.8004,23.5103 -12.05026,177.6035 -27.00603,406 -4.96292,75.7911 -11.20574,189.6702 -19.02245,347 -7.83136,157.6246 -8.69678,177.4823 -7.81197,179.25 0.82871,1.6556 9.33014,1.7492 157.5908,1.7347 86.1931,-0.01 157.2831,-0.3761 157.9777,-0.817 z"
       id="path3086"
       style="fill:#da2e2e" />
    <path
       d="M 1857.8214,4254.7192 C 1857.0946,4254.0148 1442.05,4017.0376 935.5,3728.1033 428.95,3439.169 13.870434,3202.1747 13.100965,3201.4494 11.91101,3200.3276 10.980391,3061.8457 6.8738463,2274.8153 4.2184007,1765.8919 1.812051,1329.475 1.5264024,1305 1.2407539,1280.525 0.81749983,1218.425 0.58583784,1167 l -0.42120364,-93.5 4.1676829,-2.0267 C 10.691932,1068.3808 1834.3098,2.8237955 1835.8214,1.3171287 c 1.6257,-1.62040693 1.7218,-1.6214466 3.3572,-0.036341 C 1839.9054,1.985221 2254.95,238.96237 2761.5,527.89668 c 506.55,288.93431 921.6296,525.92862 922.399,526.65392 1.19,1.1218 2.1206,139.6037 6.2272,926.6341 2.6554,508.9234 5.0617,945.3403 5.3474,969.8153 0.2856,24.475 0.7089,86.575 0.9406,138 l 0.4212,93.5 -4.1677,2.0267 c -6.3596,3.0925 -1829.9775,1068.6495 -1831.4891,1070.1562 -1.6257,1.6204 -1.7218,1.6214 -3.3572,0.036 z M 1200.3192,3012.75 c 1.5336,-1.1268 1.9476,-8.4475 4.1985,-74.25 6.3056,-184.3354 16.472,-462.5632 20.0055,-547.5 4.6438,-111.6241 14.3285,-274.6026 24.512,-412.5 6.2847,-85.1026 17.5466,-220.1785 18.7531,-224.9249 0.6844,-2.6923 1.2926,-1.7774 7.6459,11.5 20.5255,42.8953 31.3294,65.7754 41.0459,86.9249 5.9379,12.925 19.9096,43.075 31.0482,67 69.197,148.6312 101.2513,219.3643 135.833,299.7371 8.5753,19.9304 23.6522,54.3554 33.5042,76.5 20.4656,46.0013 35.0637,79.4937 56.1233,128.7629 8.1106,18.975 22.4967,51.6 31.9692,72.5 20.4964,45.2234 38.9654,87.2935 61.0217,139 31.6425,74.1798 58.2752,136.0521 60.1549,139.75 l 1.906,3.75 120.454,0 120.454,0 1.4868,-2.875 c 3.0713,-5.9393 55.1942,-126.0034 94.0424,-216.625 22.1631,-51.7 46.7001,-108.4 54.5268,-126 19.4711,-43.7854 38.8007,-88.0414 60.4924,-138.5 17.9168,-41.6777 37.8269,-86.0694 84.7682,-189 12.9176,-28.325 33.1809,-72.875 45.0297,-99 38.9344,-85.8456 116.8181,-252.4464 119.0664,-254.6946 0.9764,-0.9764 1.5209,3.7712 4.6098,40.1946 15.9074,187.5765 26.4545,350.8763 34.0375,527 1.113,25.85 3.8106,86.825 5.9947,135.5 8.1079,180.6941 13.633,318.3172 19.4913,485.5 2.239,63.8956 2.658,71.1251 4.1878,72.25 1.3429,0.9875 34.3675,1.2471 157.2587,1.2363 85.5574,-0.01 156.5714,-0.2849 157.8089,-0.6166 2.0668,-0.5539 2.25,-1.1839 2.2495,-7.7363 0,-22.6555 -13.605,-268.4714 -22.0049,-397.6334 -1.6275,-25.025 -4.3264,-69.35 -5.9976,-98.5 -6.781,-118.2782 -16.0288,-256.2473 -24.9679,-372.5 -1.6282,-21.175 -4.5625,-61.675 -6.5207,-90 -16.05,-232.167 -40.9644,-503.6682 -68.0898,-742 -6.209,-54.5545 -7.0294,-60.9441 -7.9415,-61.8563 -0.354,-0.354 -65.9038,-0.7607 -145.6664,-0.9037 l -145.0227,-0.26 -2.4787,2.76 c -4.0505,4.5104 -32.8736,56.416 -61.3647,110.5075 -47.026,89.2809 -117.6905,234.6778 -188.6951,388.2525 -10.1716,22 -25.4621,55.075 -33.9788,73.5 -35.614,77.0466 -70.6382,155.6639 -117.6125,264 -87.242,201.2049 -129.3851,297.4822 -130.1459,297.3229 -0.4651,-0.097 -9.5691,-20.1224 -20.2311,-44.5 -25.2786,-57.7969 -59.4934,-134.911 -87.5503,-197.3229 -12.3625,-27.5 -25.0656,-56.075 -28.2292,-63.5 -55.0501,-129.2057 -160.6477,-359.7578 -242.0638,-528.5 -22.9895,-47.6477 -76.547,-154.7985 -93.4688,-187 -26.9564,-51.297 -60.2088,-111.1659 -63.1791,-113.75 -1.8963,-1.6498 -10.4398,-1.7492 -149.1508,-1.7363 -80.9266,0.01 -148.126,0.2782 -149.3321,0.6016 -1.3297,0.3566 -2.4095,1.6305 -2.7433,3.2364 -0.6766,3.2555 -8.0652,64.3951 -13.4925,111.6483 -20.88086,181.8015 -43.58033,424.6632 -64.0246,685 -4.34323,55.3066 -5.10181,66.1992 -14.03288,201.5 -22.9382,347.5012 -24.64662,377.0084 -39.51236,682.4414 -4.12438,84.7399 -4.15465,86.2413 -1.75146,86.8693 0.9625,0.2515 71.97649,0.5095 157.8089,0.5733 123.4205,0.092 156.4147,-0.1454 157.7603,-1.134 z"
       id="path3084"
       style="fill:#b82e2e" />
    <path
       d="M 1857.8333,4254.0194 C 1857.65,4253.48 1442.6,4016.3511 935.5,3727.0663 l -922,-525.9725 -0.712925,-11.2969 C 12.394966,3183.5836 9.919966,2743.125 7.2870749,2211 4.6541837,1678.875 2.2614575,1253.175 1.9699055,1265 1.5609386,1281.5872 0.83570971,1189.9089 0.525,1082.3453 c -0.0203359,-7.04 0.26221907,-8.6968 1.5145326,-8.8806 C 2.8862755,1073.3404 413.73628,833.6329 915.03953,540.78132 1416.3428,247.92973 1828.8619,6.9754218 1831.7487,5.3273001 1834.6355,3.6791784 1836.698,2.0313043 1836.332,1.6653576 1835.9661,1.2994109 1836.3792,1 1837.25,1 c 0.8708,0 1.7333,0.4412904 1.9167,0.9806454 C 1839.35,2.5200003 2254.4,239.6489 2761.5,528.93375 l 922,525.97245 0.7129,11.2969 c 0.3921,6.2133 2.8671,446.6719 5.5,978.7969 2.6329,532.125 5.0256,957.825 5.3172,946 0.409,-16.5872 1.1342,75.0911 1.4449,182.6547 0.02,7.04 -0.2622,8.6968 -1.5145,8.8806 -0.8468,0.1243 -411.6968,239.8318 -913,532.6834 -501.3033,292.8516 -913.8224,533.8059 -916.7092,535.454 -2.8868,1.6481 -4.9493,3.296 -4.5833,3.6619 0.3659,0.366 -0.047,0.6654 -0.918,0.6654 -0.8708,0 -1.7333,-0.4413 -1.9167,-0.9806 z M 1200.3192,3012.75 c 1.5336,-1.1268 1.9476,-8.4475 4.1985,-74.25 6.3056,-184.3354 16.472,-462.5632 20.0055,-547.5 4.6438,-111.6241 14.3285,-274.6026 24.512,-412.5 6.2847,-85.1026 17.5466,-220.1785 18.7531,-224.9249 0.6844,-2.6923 1.2926,-1.7774 7.6459,11.5 20.5255,42.8953 31.3294,65.7754 41.0459,86.9249 5.9379,12.925 19.9096,43.075 31.0482,67 69.197,148.6312 101.2513,219.3643 135.833,299.7371 8.5753,19.9304 23.6522,54.3554 33.5042,76.5 20.4656,46.0013 35.0637,79.4937 56.1233,128.7629 8.1106,18.975 22.4967,51.6 31.9692,72.5 20.4964,45.2234 38.9654,87.2935 61.0217,139 31.6425,74.1798 58.2752,136.0521 60.1549,139.75 l 1.906,3.75 120.454,0 120.454,0 1.4868,-2.875 c 3.0713,-5.9393 55.1942,-126.0034 94.0424,-216.625 22.1631,-51.7 46.7001,-108.4 54.5268,-126 19.4711,-43.7854 38.8007,-88.0414 60.4924,-138.5 17.9168,-41.6777 37.8269,-86.0694 84.7682,-189 12.9176,-28.325 33.1809,-72.875 45.0297,-99 38.9344,-85.8456 116.8181,-252.4464 119.0664,-254.6946 0.9764,-0.9764 1.5209,3.7712 4.6098,40.1946 15.9074,187.5765 26.4545,350.8763 34.0375,527 1.113,25.85 3.8106,86.825 5.9947,135.5 8.1079,180.6941 13.633,318.3172 19.4913,485.5 2.239,63.8956 2.658,71.1251 4.1878,72.25 1.3429,0.9875 34.3675,1.2471 157.2587,1.2363 85.5574,-0.01 156.5714,-0.2849 157.8089,-0.6166 2.0668,-0.5539 2.25,-1.1839 2.2495,-7.7363 0,-22.6555 -13.605,-268.4714 -22.0049,-397.6334 -1.6275,-25.025 -4.3264,-69.35 -5.9976,-98.5 -6.781,-118.2782 -16.0288,-256.2473 -24.9679,-372.5 -1.6282,-21.175 -4.5625,-61.675 -6.5207,-90 -16.05,-232.167 -40.9644,-503.6682 -68.0898,-742 -6.209,-54.5545 -7.0294,-60.9441 -7.9415,-61.8563 -0.354,-0.354 -65.9038,-0.7607 -145.6664,-0.9037 l -145.0227,-0.26 -2.4787,2.76 c -4.0505,4.5104 -32.8736,56.416 -61.3647,110.5075 -47.026,89.2809 -117.6905,234.6778 -188.6951,388.2525 -10.1716,22 -25.4621,55.075 -33.9788,73.5 -35.614,77.0466 -70.6382,155.6639 -117.6125,264 -87.242,201.2049 -129.3851,297.4822 -130.1459,297.3229 -0.4651,-0.097 -9.5691,-20.1224 -20.2311,-44.5 -25.2786,-57.7969 -59.4934,-134.911 -87.5503,-197.3229 -12.3625,-27.5 -25.0656,-56.075 -28.2292,-63.5 -55.0501,-129.2057 -160.6477,-359.7578 -242.0638,-528.5 -22.9895,-47.6477 -76.547,-154.7985 -93.4688,-187 -26.9564,-51.297 -60.2088,-111.1659 -63.1791,-113.75 -1.8963,-1.6498 -10.4398,-1.7492 -149.1508,-1.7363 -80.9266,0.01 -148.126,0.2782 -149.3321,0.6016 -1.3297,0.3566 -2.4095,1.6305 -2.7433,3.2364 -0.6766,3.2555 -8.0652,64.3951 -13.4925,111.6483 -20.88086,181.8015 -43.58033,424.6632 -64.0246,685 -4.34323,55.3066 -5.10181,66.1992 -14.03288,201.5 -22.9382,347.5012 -24.64662,377.0084 -39.51236,682.4414 -4.12438,84.7399 -4.15465,86.2413 -1.75146,86.8693 0.9625,0.2515 71.97649,0.5095 157.8089,0.5733 123.4205,0.092 156.4147,-0.1454 157.7603,-1.134 z"
       id="path3082"
       style="fill:#d20000" />
    <path
       d="M 1857.8333,4254.0194 C 1857.65,4253.48 1442.6,4016.3511 935.5,3727.0663 l -922,-525.9725 -0.712925,-11.2969 C 12.394966,3183.5836 9.919966,2743.125 7.2870749,2211 4.6541837,1678.875 2.2614575,1253.175 1.9699055,1265 1.5609386,1281.5872 0.83570971,1189.9089 0.525,1082.3453 c -0.0203359,-7.04 0.26221907,-8.6968 1.5145326,-8.8806 C 2.8862755,1073.3404 413.73628,833.6329 915.03953,540.78132 1416.3428,247.92973 1828.8619,6.9754218 1831.7487,5.3273001 1834.6355,3.6791784 1836.698,2.0313043 1836.332,1.6653576 1835.9661,1.2994109 1836.3792,1 1837.25,1 c 0.8708,0 1.7333,0.4412904 1.9167,0.9806454 C 1839.35,2.5200003 2254.4,239.6489 2761.5,528.93375 l 922,525.97245 0.7129,11.2969 c 0.3921,6.2133 2.8671,446.6719 5.5,978.7969 2.6329,532.125 5.0256,957.825 5.3172,946 0.409,-16.5872 1.1342,75.0911 1.4449,182.6547 0.02,7.04 -0.2622,8.6968 -1.5145,8.8806 -0.8468,0.1243 -411.6968,239.8318 -913,532.6834 -501.3033,292.8516 -913.8224,533.8059 -916.7092,535.454 -2.8868,1.6481 -4.9493,3.296 -4.5833,3.6619 0.3659,0.366 -0.047,0.6654 -0.918,0.6654 -0.8708,0 -1.7333,-0.4413 -1.9167,-0.9806 z M 2639,3479.6323 c 428.175,-250.1296 778.8411,-455.1112 779.258,-455.5146 0.7648,-0.7402 -8.0057,-1802.9027 -8.7922,-1806.6177 -0.5501,-2.5987 -1566.4111,-896.00908 -1570.3693,-895.98269 -1.6295,0.0109 -292.5397,169.40485 -781.0965,454.82437 -428.175,250.14392 -778.84108,455.13722 -779.25795,455.54062 -0.76486,0.7403 8.0057,1802.9033 8.79224,1806.6177 0.59209,2.7961 1566.82561,896.5562 1570.46571,896.1751 1.375,-0.1439 352.825,-204.9132 781,-455.0428 z"
       id="path3080"
       style="fill:#a90000" />
  </g>
</svg>
