<?xml version="1.0" encoding="UTF-8" standalone="no"?>
<!-- Created with Inkscape (http://www.inkscape.org/) -->

<svg
   xmlns:dc="http://purl.org/dc/elements/1.1/"
   xmlns:cc="http://creativecommons.org/ns#"
   xmlns:rdf="http://www.w3.org/1999/02/22-rdf-syntax-ns#"
   xmlns:svg="http://www.w3.org/2000/svg"
   xmlns="http://www.w3.org/2000/svg"
   version="1.1"
   width="3697"
   height="4256"
   id="svg3039">
  <metadata
     id="metadata3045">
    <rdf:RDF>
      <cc:Work
         rdf:about="">
        <dc:format>image/svg+xml</dc:format>
        <dc:type
           rdf:resource="http://purl.org/dc/dcmitype/StillImage" />
        <dc:title></dc:title>
      </cc:Work>
    </rdf:RDF>
  </metadata>
  <defs
     id="defs3043" />
  <g
     transform="translate(1.291e-5,0.03444637)"
     id="g3051">
    <path
       d="M 1854.5,4254.0703 C 1848.9919,4251.6076 12.844966,3204.1402 11.090727,3202.4599 9.8871024,3201.307 9.1204348,3086.0763 5.8368939,2412.805 3.722386,1979.2373 1.4888606,1500.5904 0.87350412,1349.1454 l -1.11882994,-275.3546 2.37266292,-2.2463 C 4.7358554,1069.075 1829.6215,3.0564181 1834.5639,1.1150343 c 2.5863,-1.01591552 3.7553,-0.90647255 7.5,0.7021493 5.4352,2.3348633 1841.8699,1049.8307164 1843.8454,1051.7229164 1.2036,1.1529 1.9703,116.3836 5.2538,789.6549 2.1145,433.5677 4.348,912.2146 4.9634,1063.6596 l 1.1188,275.3546 -2.3726,2.2463 c -2.3626,2.2367 -1826.8434,1068.105 -1832.1698,1070.3602 -3.4127,1.445 -3.2761,1.4574 -8.2029,-0.7454 z M 1199.3859,3003.75 c 0.306,-3.9875 0.8083,-16.025 1.1162,-26.75 2.2435,-78.1622 18.0859,-515.9124 21.5152,-594.5 7.5526,-173.0793 21.9922,-391.8206 38.0561,-576.5 5.5584,-63.9029 5.1688,-60.5 6.9266,-60.5 2.2141,0 22.064,40.2684 53.2375,108 6.5815,14.3 22.546,48.725 35.4766,76.5 65.6638,141.0469 99.5101,215.948 135.7897,300.5 5.8998,13.75 16.252,37.375 23.0049,52.5 18.9965,42.5483 35.9597,81.3896 56.9933,130.5 10.6003,24.75 25.0035,57.6 32.0073,73 20.9026,45.9607 42.4207,94.9155 65.713,149.5 12.0868,28.325 30.5397,71.4125 41.0063,95.75 l 19.0302,44.25 119.2066,0 119.2065,0 27.8259,-63.75 c 15.3042,-35.0625 44.7935,-103.35 65.5317,-151.75 20.7382,-48.4 46.3719,-107.575 56.9638,-131.5 20.6077,-46.5486 49.4652,-112.7918 65.792,-151.0272 9.512,-22.2761 46.3074,-103.9855 77.2177,-171.4728 7.8091,-17.05 22.4294,-49.225 32.4894,-71.5 48.5077,-107.406 131.7955,-285.572 135.0796,-288.9571 3.0508,-3.1447 2.78,-5.2327 9.4,72.4571 13.0173,152.7666 24.0616,324.3419 30.9942,481.5 1.1039,25.025 2.6808,60.8 3.5042,79.5 0.8234,18.7 2.8513,64.15 4.5064,101 6.8352,152.1833 13.2308,312.804 17.52,440 1.4096,41.8 2.813,79.2639 3.1186,83.2531 l 0.5558,7.2531 156.6496,-0.2531 156.6496,-0.2531 -0.2896,-8 c -1.9668,-54.326 -13.1821,-256.2481 -21.1617,-381 -2.1812,-34.1 -5.3355,-85.625 -7.0096,-114.5 -7.309,-126.0648 -15.3145,-245.5278 -24.4928,-365.5 -1.8935,-24.75 -4.823,-65.025 -6.51,-89.5 -15.8321,-229.6852 -38.9527,-484.0385 -65.5386,-721 -3.5481,-31.625 -7.2425,-63.8 -8.2096,-71.5 l -1.7585,-14 -144.4759,0 -144.4759,0 -3.6684,6.067 c -13.2953,21.988 -48.76,87.7142 -78.605,145.6774 -73.7561,143.2448 -215.099,445.2493 -300.1178,641.2556 -104.0659,239.9182 -150.1507,345.0436 -151.3675,345.289 -0.7881,0.1589 -2.0079,-0.9661 -2.7106,-2.5 -0.7028,-1.534 -9.7384,-22.139 -20.0792,-45.789 -22.766,-52.0673 -64.1723,-145.3508 -88.9971,-200.5 -10.0269,-22.275 -25.35,-56.9643 -34.0514,-77.0872 -39.5902,-91.5565 -70.9009,-161.3355 -122.4593,-272.9128 -72.1108,-156.0545 -105.0092,-225.0728 -158.0137,-331.5 -42.2511,-84.8354 -70.1517,-137.8437 -102.637,-195 l -7.3887,-13 -147.9229,-0.2533 c -81.3577,-0.1393 -148.256,0.086 -148.663,0.5 -1.3477,1.372 -17.2346,137.7708 -27.8085,238.7533 -16.73026,159.7774 -34.26173,355.2766 -51.51853,574.5 -2.5653,32.5886 -10.31751,148.0805 -25.00346,372.5 -9.59955,146.6931 -15.47128,252.9417 -26.02937,471 -1.4114,29.15 -3.15904,65.15 -3.88363,80 -0.7246,14.85 -1.13467,27.3375 -0.91127,27.75 0.22341,0.4125 70.76624,0.75 156.76186,0.75 l 156.3557,0 0.5565,-7.25 z"
       id="path3065"
       style="fill:#a5dbd0" />
    <path
       d="m 1854,4253.2809 c -2.475,-1.4168 -417.825,-238.3493 -923,-526.5166 C 425.825,3438.597 12.063348,3202.4042 11.529662,3201.8915 10.91076,3201.2969 9.0551732,2904.252 6.4062577,2381.7297 0.07623778,1133.0765 -0.18281325,1073.7811 0.68836722,1072.9347 1.6979095,1071.9538 1820.796,9.1936213 1830.6528,3.8261478 l 7.1528,-3.89504055 4.8472,2.68373165 C 1860.4637,12.476135 3684.6977,1053.3662 3685.4703,1054.1085 c 0.6189,0.5946 2.4745,297.6395 5.1234,820.1618 6.3301,1248.6532 6.5891,1307.9486 5.7179,1308.795 -0.935,0.9086 -1819.2315,1063.2374 -1829.8116,1069.0565 -3.85,2.1175 -7.225,3.8242 -7.5,3.7926 -0.275,-0.032 -2.525,-1.2167 -5,-2.6335 z M 1199.6012,3010.8362 c 0.3956,-0.64 1.3178,-18.9775 2.0494,-40.75 8.0921,-240.8267 20.01,-562.2383 23.3636,-630.0862 9.1387,-184.8924 21.2228,-363.1314 36.5766,-539.5 4.0447,-46.4621 5.1523,-55.0902 6.8536,-53.389 1.3684,1.3685 36.8737,76.0441 55.576,116.889 5.9182,12.925 17.3831,37.675 25.4776,55 61.6868,132.0307 101.6906,220.3766 138.786,306.5 8.5283,19.8 21.2321,48.825 28.2305,64.5 17.2653,38.6702 37.2736,84.545 54.9551,126 8.0932,18.975 22.9602,52.725 33.0376,75 25.6283,56.648 38.9255,87.1034 80.8468,185.1682 20.1421,47.1175 38.1776,89.0819 40.0789,93.2541 l 3.457,7.5858 119.7557,-0.254 119.7557,-0.2541 4.2218,-9.5 c 14.3174,-32.2181 63.9844,-146.855 91.8499,-212 17.9975,-42.075 41.2834,-95.85 51.7465,-119.5 23.2177,-52.4792 45.1507,-102.7862 62.7817,-144 13.6024,-31.7966 43.126,-97.5575 81.4852,-181.5 11.9384,-26.125 29.9362,-65.725 39.9953,-88 24.9847,-55.3267 48.8662,-107.1215 76.7698,-166.5 38.927,-82.836 49.9666,-105.9302 51.3531,-107.4275 1.1452,-1.2368 1.3916,-1.2368 1.8433,0 0.2868,0.7851 2.0891,19.4275 4.0052,41.4275 15.2145,174.6936 26.9204,355.7826 34.551,534.5 1.1154,26.125 3.3664,76.975 5.002,113 8.2706,182.1571 15.2397,356.4356 21.3577,534.0971 0.731,21.2284 1.6498,39.1159 2.0417,39.75 1.0809,1.749 314.2014,1.6524 314.8288,-0.097 1.2312,-3.4334 -12.5598,-255.999 -21.7186,-397.75 -1.9012,-29.425 -4.8245,-77.35 -6.4963,-106.5 -6.5505,-114.2191 -14.6807,-235.7183 -24.0227,-359 -2.1672,-28.6 -5.0849,-68.65 -6.4837,-89 -16.5308,-240.4917 -40.9923,-507.8031 -69.0897,-755 -3.5633,-31.35 -6.6772,-57.5625 -6.9197,-58.25 -0.3499,-0.9923 -30.1878,-1.2468 -144.7222,-1.2347 -79.3548,0.01 -144.8039,0.3478 -145.4426,0.7541 -2.1453,1.365 -31.0637,53.1373 -56.8236,101.7306 -77.4596,146.1196 -227.8927,464.9734 -325.7732,690.5 -65.9552,151.9675 -148.2377,341.0266 -149.4396,343.3649 -0.8119,1.5795 -1.8487,2.4768 -2.3108,2 -0.461,-0.4757 -8.7968,-19.0899 -18.524,-41.3649 -21.2054,-48.5597 -64.0029,-145.0695 -94.2336,-212.5 -12.0823,-26.95 -29.0615,-65.425 -37.7315,-85.5 -90.8549,-210.3696 -244.4114,-536.7284 -322.0673,-684.5 -24.5297,-46.6778 -58.8041,-108.7696 -62.2392,-112.7533 -1.4302,-1.6585 -9.5422,-1.7395 -150.0902,-1.5 l -148.5783,0.2533 -0.7121,5 c -1.5524,10.9009 -12.1068,100.7352 -17.2744,147.0328 -26.34173,236.0006 -54.02857,551.3609 -71.50555,814.4672 -18.26409,274.9556 -23.26797,354.6841 -28.4956,454.0303 -9.56266,181.729 -17.43465,343.9171 -16.77991,345.7197 0.63902,1.7593 313.75426,1.845 314.84126,0.086 z"
       id="path3063"
       style="fill:#8bc4b9" />
    <path
       d="M 936.4864,3729.3539 C 428.84388,3439.7695 12.956513,3202.3111 12.292252,3201.6684 11.357175,3200.7638 10.057906,3001.0343 6.5373604,2317 4.0364312,1831.075 1.5223328,1352.5576 0.9504749,1253.628 0.37861704,1154.6983 0.04331834,1073.6453 0.20536667,1073.5101 1.8733134,1072.1183 1836.7606,0.70663245 1837.5,0.69276981 1838.686,0.67053434 3682.9478,1052.6291 3684.7077,1054.3316 c 0.9351,0.9046 2.2344,200.634 5.7549,884.6684 2.501,485.925 5.0151,964.4424 5.5869,1063.372 0.5719,98.9297 0.9072,179.9826 0.7451,180.1178 -0.162,0.1352 -412.2696,240.8816 -915.7946,534.9921 -503.525,294.1105 -916.8561,535.566 -918.5136,536.5677 l -3.0136,1.8213 -922.9864,-526.517 z M 1200.4283,3009.75 c 0.2565,-1.2375 1.6307,-37.8 3.0538,-81.25 6.8189,-208.1944 18.8094,-528.6596 22.5431,-602.5 8.3449,-165.0342 18.5823,-318.8735 31.5097,-473.5 7.7987,-93.283 8.8109,-103.7829 10.0444,-104.1936 1.4781,-0.492 25.8839,49.9397 57.9242,119.6936 6.1895,13.475 22.1509,47.9 35.4698,76.5 60.2927,129.4681 93.4359,202.901 129.5344,287 5.902,13.75 15.4591,35.575 21.238,48.5 17.5923,39.347 38.5014,87.2016 58.7667,134.5 10.6044,24.75 24.1003,55.575 29.991,68.5 19.4146,42.5985 45.8537,102.7226 67.9401,154.5 11.9652,28.05 30.3185,70.9125 40.7851,95.25 l 19.0302,44.25 120.2066,0 120.2065,0 27.8274,-63.75 c 15.3051,-35.0625 45.4756,-104.925 67.0456,-155.25 21.5699,-50.325 45.5793,-105.8116 53.3542,-123.3035 18.2924,-41.1541 40.5806,-92.2057 61.8874,-141.7547 17.3528,-40.3537 38.7522,-88.052 84.9916,-189.4418 14.2973,-31.35 34.5586,-75.9 45.025,-99 26.0003,-57.3843 45.4716,-99.4728 74.9458,-162 42.4604,-90.0763 44.6271,-94.5413 45.7041,-94.1834 1.1718,0.3893 1.6408,5.1201 7.9987,80.6834 13.5295,160.7959 24.0592,327.2805 31.0544,491 0.8578,20.075 2.8899,65.975 4.5159,102 9.1974,203.7756 16.8977,396.0849 21.5022,537 0.8716,26.675 1.7938,49.5125 2.0493,50.75 l 0.4646,2.25 157.4219,0 c 98.2168,0 157.6425,-0.3569 158.0084,-0.9489 1.3841,-2.2396 -11.5398,-240.9125 -21.0126,-388.0511 -1.9298,-29.975 -4.6269,-73.85 -5.9935,-97.5 -7.8328,-135.5495 -15.8432,-256.0232 -24.9674,-375.5 -1.9111,-25.025 -4.8279,-65.075 -6.4817,-89 -14.9692,-216.5536 -34.3817,-435.603 -58.5788,-661 -9.1843,-85.5518 -17.0935,-153.6393 -18.0215,-155.1409 -0.292,-0.4725 -65.7487,-0.8591 -145.4594,-0.8591 l -144.9284,0 -2.6855,4.25 c -4.3996,6.9628 -34.0387,60.4505 -47.7937,86.25 -51.9117,97.3683 -121.4121,239.9152 -204.7759,420 -73.972,159.7963 -80.0963,173.5771 -208.314,468.7399 -37.9258,87.307 -69.406,158.5976 -69.956,158.4236 -0.55,-0.174 -7.6654,-15.582 -15.812,-34.2399 -21.6706,-49.6315 -64.6733,-146.597 -90.437,-203.9236 -12.3591,-27.5 -29.5922,-66.4643 -38.2958,-86.5872 -46.2814,-107.0035 -89.4167,-202.4105 -160.4626,-354.9128 -91.2731,-195.9208 -168.8387,-350.6672 -222.9474,-444.789 l -7.3074,-12.711 -148.8156,-0.2533 c -82.548,-0.1405 -149.2,0.1311 -149.6788,0.6099 -2.8963,2.8963 -30.39532,254.5589 -45.69037,418.1434 -18.75631,200.6036 -32.5491,370.8622 -44.06989,544 -22.58069,339.3492 -25.1891,382.6626 -35.95232,597 -7.35095,146.3859 -10.09034,206.0947 -9.49935,207.0509 0.36604,0.5923 59.76974,0.9491 158.00853,0.9491 l 157.4219,0 0.4664,-2.25 z"
       id="path3061"
       style="fill:#5cc7b2" />
    <path
       d="M 936.49261,3729.3467 C 428.84668,3439.7626 12.958491,3202.3058 12.296646,3201.665 11.36742,3200.7654 10.05583,2998.8943 6.5390853,2315.5 4.0342714,1828.75 1.5176522,1350.2331 0.94659821,1252.1292 0.37554423,1154.0252 0.04144664,1073.6486 0.20415912,1073.5145 1.9352516,1072.0873 1836.7637,0.71238109 1837.5,0.69881582 1838.6853,0.67697736 3682.9486,1052.6362 3684.7034,1054.335 c 0.9292,0.8996 2.2408,202.7706 5.7575,886.165 2.5048,486.75 5.0214,965.2669 5.5925,1063.3708 0.5711,98.104 0.9052,178.4806 0.7424,178.6147 -0.1627,0.134 -412.2708,240.8795 -915.7958,534.9898 -503.525,294.1104 -916.8533,535.5655 -918.5074,536.567 l -3.0074,1.8209 -922.99259,-526.5165 z m 264.13059,-717.5461 c 0.4077,-0.6597 1.5448,-25.0722 2.5269,-54.25 7.8744,-233.9543 19.4693,-546.2788 22.8892,-616.5506 8.6183,-177.0885 21.2274,-363.3884 36.5143,-539.5 4.5396,-52.2985 4.5663,-52.5439 5.629,-51.8871 1.4535,0.8982 26.7659,53.865 56.8154,118.8871 11.438,24.75 31.4656,67.95 44.5058,96 51.7926,111.4086 83.522,181.7481 115.479,256 9.2318,21.45 22.4443,51.6605 29.3611,67.1345 17.0964,38.2471 37.7625,85.6218 55.2611,126.68 8.0132,18.802 21.6851,49.9355 30.382,69.1855 28.1639,62.3395 34.755,77.4155 81.5366,186.5 l 46.102,107.5 120.8047,0 120.8047,0 24.4519,-56 c 13.4486,-30.8 43.2715,-99.875 66.273,-153.5 23.0016,-53.625 48.2179,-111.9 56.0362,-129.5 18.9015,-42.5496 48.6404,-110.7064 65.0133,-149 12.8749,-30.1124 41.1684,-93.1199 79.482,-177 10.3,-22.55 26.9572,-59.225 37.0159,-81.5 23.4823,-52.0016 48.1933,-105.8296 67.7132,-147.5 37.3475,-79.728 63.0854,-133.5 63.8995,-133.5 0.484,0 0.88,0.6273 0.88,1.394 0,0.7668 0.4464,5.8293 0.992,11.25 1.4143,14.0519 8.5394,99.0445 11.4729,136.856 10.2609,132.2588 18.7228,271.4253 24.5344,403.5 1.1253,25.575 3.3862,76.425 5.0241,113 9.847,219.8809 16.3549,382.1865 22.316,556.5545 0.7155,20.93 1.6334,38.5925 2.0398,39.25 1.0714,1.7336 314.6785,1.7378 316.4119,0 0.8198,-0.8198 1.0243,-3.7036 0.6558,-9.25 -0.2945,-4.4324 -1.6421,-30.7839 -2.9947,-58.5589 -4.6848,-96.2015 -11.4082,-214.5522 -17.9799,-316.5 -1.9146,-29.7 -4.8325,-77.4 -6.4844,-106 -7.6603,-132.631 -15.6045,-251.5821 -25.4785,-381.5 -1.9019,-25.025 -4.6014,-62.15 -5.9989,-82.5 -11.0579,-161.0286 -25.1218,-327.7349 -42.5613,-504.5 -13.8272,-140.1509 -32.223,-306.3836 -34.1671,-308.75 -0.813,-0.9895 -31.1859,-1.25 -145.7496,-1.25 -136.5889,0 -144.8074,0.098 -146.233,1.75 -1.8776,2.1753 -19.2719,32.9903 -36.5498,64.75 -52.0045,95.5934 -128.0927,250.3537 -208.9521,425 -10.1857,22 -25.3948,54.85 -33.7978,73 -32.4237,70.0329 -75.6434,166.5854 -108.5498,242.5 -83.5132,192.6632 -143.7714,330.4671 -144.4386,330.3157 -0.4467,-0.1014 -7.748,-16.0764 -16.2252,-35.5 -22.1108,-50.6621 -56.2301,-127.6355 -88.7921,-200.3157 -15.5238,-34.65 -35.3191,-79.425 -43.9896,-99.5 -82.0829,-190.0491 -226.6719,-499.4064 -301.2296,-644.5 -38.0243,-73.9974 -81.1189,-153.1564 -85.0634,-156.25 -2.3478,-1.8414 -297.4829,-1.8328 -299.0112,0.01 -1.6516,1.99 -16.6054,129.1242 -28.14013,239.2413 -15.68176,149.7073 -32.49336,335.5893 -48.52234,536.5 -5.96696,74.7912 -8.37047,110.0252 -28.99171,425 -8.67125,132.4473 -14.56974,239.5202 -24.54194,445.5 -1.67752,34.65 -3.67429,75.825 -4.43726,91.5 -0.95622,19.6453 -1.0664,28.8884 -0.35462,29.75 1.47896,1.7904 315.3047,1.8405 316.4109,0.051 z"
       id="path3059"
       style="fill:#5caf9e" />
    <path
       d="m 1857.6087,4254.4658 c -0.9047,-0.9046 -416.1992,-238.124 -922.87675,-527.1542 C 428.05438,3438.2815 13.174012,3201.4983 12.775581,3201.1267 12.377151,3200.7552 10.015739,2791.6372 7.5279986,2291.9756 5.0402584,1792.314 2.5494105,1357.625 1.9927811,1326 1.4361516,1294.375 0.83162151,1224.5125 0.64938077,1170.75 0.38281554,1092.1111 0.56686989,1073 1.5907877,1073 3.1684985,1073 1832.6856,4.4329311 1835.6233,1.7956367 c 1.9704,-1.76895949 2.2417,-1.78778112 3.768,-0.2614332 0.9047,0.9046186 416.1992,238.1239865 922.8768,527.1541565 506.6775,289.03017 921.5579,525.81334 921.9563,526.18494 0.3984,0.3715 2.7599,409.4895 5.2476,909.1511 2.4877,499.6616 4.9786,934.3506 5.5352,965.9756 0.5566,31.625 1.1612,101.4875 1.3434,155.25 0.2666,78.6389 0.082,97.75 -0.9414,97.75 -1.5777,0 -1831.0948,1068.5671 -1834.0325,1071.2044 -1.9704,1.7689 -2.2417,1.7877 -3.768,0.2614 z M 1200.7463,3011.75 c 0.5826,-0.7347 2.09,-34.0248 3.6563,-80.75 7.9821,-238.1091 18.9341,-530.1972 22.6286,-603.5 8.5595,-169.8295 19.613,-334.8728 32.9522,-492.0194 6.1085,-71.9625 7.2352,-83.9248 7.9841,-84.7639 0.3845,-0.4308 3.7748,5.6442 7.5341,13.5 22.5712,47.168 32.1581,67.4877 44.483,94.2833 7.5893,16.5 21.7747,47.1 31.5231,68 63.5474,136.2424 99.7465,216.3321 138.9841,307.5 6.7464,15.675 16.9981,39.075 22.7817,52 16.5634,37.0153 34.3523,77.7621 55.3698,126.8281 10.679,24.9305 25.0783,57.7805 31.9984,73 21.8742,48.1081 43.721,97.8535 69.0256,157.1719 38.4036,90.0248 57.1524,133.2197 58.3396,134.4069 1.5433,1.5433 239.4355,1.5507 240.9787,0.01 1.4925,-1.4925 47.3632,-106.6561 93.5241,-214.4144 21.0867,-49.225 46.5142,-107.95 56.5056,-130.5 20.4082,-46.0604 57.4303,-131.0763 67.5615,-155.1453 6.7813,-16.1106 38.9661,-87.5458 72.9229,-161.8547 10.3046,-22.55 26.9618,-59.225 37.0161,-81.5 47.3362,-104.8726 130.227,-282.0809 132.2634,-282.7597 0.9746,-0.3249 1.4164,4.2107 7.7191,79.2597 13.2268,157.4955 23.4679,318.6237 30.5081,480 1.1277,25.85 3.8311,86.825 6.0075,135.5 8.9559,200.2969 15.2297,357.3728 20.5896,515.5 0.9534,28.1275 2.0827,49.5325 2.6511,50.25 0.7847,0.9905 33.7669,1.25 158.8992,1.25 135.8326,0 157.9855,-0.1995 158.4564,-1.4266 1.2917,-3.3662 -11.7054,-242.6563 -21.1326,-389.0734 -1.9123,-29.7 -4.8371,-77.625 -6.4996,-106.5 -7.2135,-125.2876 -15.333,-246.9634 -24.49,-367 -1.9091,-25.025 -4.6016,-61.925 -5.9835,-82 -17.1058,-248.5063 -40.9231,-509.6161 -69.552,-762.5 -3.3001,-29.15 -6.3411,-54.8 -6.7579,-57 l -0.7579,-4 -146.3611,0 -146.3611,0 -7.9763,14 c -54.5785,95.7974 -126.3039,238.4313 -211.9571,421.5 -66.9133,143.0154 -120.8756,261.9069 -163.6232,360.5 -87.4703,201.7414 -147.828,339.7162 -148.6009,339.6946 -0.5187,-0.014 -7.1818,-14.3517 -14.8069,-31.8605 -19.0314,-43.6999 -66.7593,-151.3252 -91.5015,-206.3341 -11.2559,-25.025 -27.6427,-62.0877 -36.4151,-82.3615 -47.0467,-108.7288 -95.9994,-216.9521 -165.6155,-366.1385 -71.5022,-153.2282 -142.5279,-296.8073 -189.9571,-384 -16.3634,-30.0819 -34.1624,-61.5469 -36.062,-63.75 -1.4245,-1.6521 -9.8592,-1.75 -150.7949,-1.75 -82.1073,0 -149.519,0.3771 -149.8039,0.838 -1.9433,3.1444 -23.04309,189.5198 -35.0572,309.662 -14.19667,141.968 -33.04734,357.1947 -45.50052,519.5 -3.96591,51.6887 -31.07758,464.6648 -34.00644,518 -3.40089,61.9311 -7.8225,147.4866 -12.50685,242 -7.56913,152.7181 -8.68131,177.1609 -8.12683,178.6059 0.75405,1.965 315.78664,2.1081 317.34404,0.1441 z"
       id="path3057"
       style="fill:#00a987" />
    <path
       d="m 1857.5986,4254.4557 c -0.9102,-0.9101 -29.6547,-17.627 -63.8767,-37.1485 -98.114,-55.9679 -210.3296,-119.9865 -325.7219,-185.8235 -58.575,-33.4198 -133.5,-76.1621 -166.5,-94.9828 -33,-18.8206 -96.9,-55.2719 -142,-81.0027 -45.1,-25.7308 -113.725,-64.88 -152.5,-86.9982 -38.775,-22.1181 -107.4,-61.2682 -152.5,-87.0002 -45.1,-25.7319 -110.575,-63.0832 -145.5,-83.0028 -34.925,-19.9195 -105.125,-59.9682 -156,-88.9971 -50.875,-29.0288 -116.35,-66.379 -145.5,-83.0004 C 378.35,3409.8781 303.425,3367.1374 241,3331.52 178.575,3295.9027 101.5125,3251.9361 69.75,3233.8164 L 12,3200.8716 11.825,3148.4358 C 11.72875,3119.5961 11.570594,3094.7625 11.473541,3093.25 11.376489,3091.7375 11.003256,3013.325 10.644135,2919 10.285013,2824.675 9.7700431,2726.575 9.4997563,2701 9.2294695,2675.425 8.7804286,2596.225 8.5018875,2525 8.2233465,2453.775 7.7724349,2356.125 7.4998617,2308 7.2272886,2259.875 6.7792628,2180.9 6.5042488,2132.5 6.2292348,2084.1 5.7764138,1986 5.4979798,1914.5 5.2195459,1843 4.7708657,1763.575 4.5009128,1738 4.2309598,1712.425 3.754416,1614.775 3.4419265,1521 3.129437,1427.225 2.6705071,1347.8 2.4220823,1344.5 1.9594512,1338.3545 1.3418068,1271.7552 0.56959345,1144.75 0.20283277,1084.4292 0.35171827,1073 1.504264,1073 2.2582715,1073 38.56577,1052.1477 82.187593,1026.6616 125.80942,1001.1755 200.65,957.45987 248.5,929.51579 c 47.85,-27.94409 101.4,-59.22695 119,-69.51747 17.6,-10.29052 97.7,-57.08798 178,-103.99435 175.43876,-102.48063 244.5655,-142.86242 303,-177.0036 75.09965,-43.87803 232.025,-135.54813 297.5,-173.78866 34.375,-20.07666 82.3,-48.07519 106.5,-62.21895 24.2,-14.14377 124.325,-72.633 222.5,-129.97607 98.175,-57.34307 201,-117.409264 228.5,-133.480437 27.5,-16.071173 68,-39.711308 90,-52.533633 22,-12.822326 40.9555,-24.1682872 42.1233,-25.2132482 1.9757,-1.76782947 2.2383,-1.7848712 3.7781,-0.2451033 0.9102,0.9101543 29.6547,17.6269825 63.8767,37.1485065 98.114,55.967884 210.3296,119.986575 325.7219,185.823495 58.575,33.41988 133.5,76.16214 166.5,94.98281 33,18.82066 96.9,55.27188 142,81.00272 45.1,25.73083 113.725,64.88 152.5,86.99816 38.775,22.11815 107.4,61.26824 152.5,87.00019 45.1,25.73195 110.575,63.08321 145.5,83.0028 34.925,19.91959 105.125,59.96828 156,88.9971 50.875,29.02882 116.35,66.379 145.5,83.00041 29.15,16.6214 104.075,59.36218 166.5,94.97951 62.425,35.61733 139.4875,79.58393 171.25,97.70363 l 57.75,32.9448 0.175,52.4358 c 0.096,28.8397 0.2544,53.6733 0.3515,55.1858 0.097,1.5125 0.4702,79.925 0.8294,174.25 0.3591,94.325 0.8741,192.425 1.1443,218 0.2703,25.575 0.7194,104.775 0.9979,176 0.2786,71.225 0.7295,168.875 1.002,217 0.2726,48.125 0.7206,127.1 0.9957,175.5 0.275,48.4 0.7278,146.5 1.0062,218 0.2785,71.5 0.7271,150.925 0.9971,176.5 0.2699,25.575 0.7465,123.225 1.059,217 0.3125,93.775 0.7714,173.2 1.0198,176.5 0.4626,6.1455 1.0803,72.7448 1.8525,199.75 0.3668,60.3208 0.2179,71.75 -0.9347,71.75 -0.754,0 -37.0615,20.8523 -80.6833,46.3384 -43.6218,25.4861 -118.4624,69.2017 -166.3124,97.1458 -47.85,27.9441 -101.4,59.227 -119,69.5175 -17.6,10.2905 -97.7,57.088 -178,103.9943 -175.4388,102.4807 -244.5655,142.8625 -303,177.0036 -75.0997,43.8781 -232.025,135.5482 -297.5,173.7887 -34.375,20.0766 -82.3,48.0752 -106.5,62.2189 -24.2,14.1438 -124.325,72.633 -222.5,129.9761 -98.175,57.3431 -201,117.4093 -228.5,133.4804 -27.5,16.0712 -68,39.7114 -90,52.5337 -22,12.8223 -40.9555,24.1683 -42.1233,25.2132 -1.9757,1.7679 -2.2383,1.7849 -3.7781,0.2451 z m 780.9023,-775.0903 c 428.2672,-250.176 778.9945,-455.5404 779.3938,-456.3654 1.0282,-2.1242 -8.4901,-1806.0067 -9.5347,-1806.9875 -0.473,-0.4441 -353.6417,-202.0466 -784.8193,-448.00561 l -783.9593,-447.19816 -3.6575,1.84564 C 1824.751,328.29235 279.70938,1231.7514 279.10513,1233 c -0.91431,1.8894 8.42883,1805.8636 9.35781,1806.8065 2.34089,2.3759 1568.35656,895.0367 1569.70356,894.763 0.9166,-0.1862 352.0671,-205.0281 780.3344,-455.2041 z"
       id="path3055"
       style="fill:#038a6f" />
    <path
       d="m 1858.8125,4254.3169 c 0.7219,-0.2889 1.5844,-0.2534 1.9167,0.079 0.3323,0.3323 -0.2584,0.5687 -1.3125,0.5253 -1.165,-0.048 -1.4019,-0.285 -0.6042,-0.6042 z M 936.61637,3727.0573 C 429.58037,3437.7988 14.368284,3200.7654 13.922844,3200.3164 13.477404,3199.8674 10.725038,2734.425 7.8064762,2166 4.5649659,1534.6769 2.3054296,1160.129 2,1203.5 l -0.5,71 -0.5,-100 c -0.275,-55 -0.33125,-100.3855 -0.125,-100.8568 0.20625,-0.4712 0.65625,-0.4474 1,0.053 C 2.21875,1074.1965 415.15,833.49578 919.5,538.80571 1423.85,244.11565 1837.226,3.1711288 1838.1133,3.373444 1839.976,3.7981214 3680.8917,1053.7257 3682.6983,1055.3937 c 0.9229,0.8521 2.4165,238.5825 6.5,1034.6063 3.2372,631.0441 5.4964,1005.8518 5.8017,962.5 l 0.5,-71 0.5,100 c 0.275,55 0.3313,100.3855 0.125,100.8568 -0.2063,0.4712 -0.6562,0.4474 -1,-0.053 -0.3437,-0.5003 -413.275,240.1881 -917.625,534.8631 -504.35,294.675 -917.45,535.7822 -918,535.7938 -0.55,0.012 -415.8476,-236.6449 -922.88363,-525.9034 z M 2639.0546,3481.0717 3419.5,3025.1434 l 0.2675,-31.3217 c 0.1471,-17.2269 -1.7667,-424.1605 -4.2528,-904.2967 -4.2777,-826.1408 -4.614,-873.0659 -6.2675,-874.6701 C 3407.3549,1213.019 1840.5193,319 1839.1941,319 c -0.4417,0 -352.0037,205.16774 -781.2487,455.92832 L 277.5,1230.8566 l -0.26747,31.3217 c -0.14712,17.2269 1.76662,424.1569 4.25273,904.2887 4.02369,777.0751 4.68776,873.1354 6.04549,874.5 1.81029,1.8194 1568.48855,895.8816 1570.02385,895.9713 0.58,0.034 352.255,-205.106 781.5,-455.8666 z M 1836.8125,1.316886 c 0.7219,-0.2888706 1.5844,-0.2533443 1.9167,0.078947 0.3323,0.3322917 -0.2584,0.5686404 -1.3125,0.5252193 -1.165,-0.047984 -1.4019,-0.2849403 -0.6042,-0.6041666 z"
       id="path3053"
       style="fill:#007f65" />
  </g>
</svg>
